# xmcd
# 
# Track frame offsets:
#     150
#     14175
#     27747
#     39899
#     57785
#     76590
#     89721
#     103616
#     122680
#     133339
#     147498
#     160184
#     171071
#     183375
#     198888
#     212842
#     224662
#     240850
#     256429
#     276399
# 
# Disc length: 3884
# 
# Revision: 5
# Processed by: cddbd v1.5.2PL0 Copyright (c) Steve Scherf et al.
# Submitted via: fre:ac v1.0.31
# 
DISCID=2a0f2a14
DTITLE=Dolly Parton - Blue Smoke
DYEAR=2014
DGENRE=Country
TTITLE0=I Will Always Love You
TTITLE1=9 To 5
TTITLE2=Jolene
TTITLE3=Together You And I
TTITLE4=Islands In The Stream
TTITLE5=Here You Come Again
TTITLE6=Coat Of Many Colors
TTITLE7=Little Sparrow
TTITLE8=Love Is Like A Butterfly
TTITLE9=My Tennessee Mountain Home
TTITLE10=In The Ghetto
TTITLE11=Silver Threads And Golden Needles
TTITLE12=Sacred Memories
TTITLE13=Applejack
TTITLE14=Two Doors Down
TTITLE15=Baby I'm Burnin'
TTITLE16=Better Get To Livin'
TTITLE17=The Sacrifice
TTITLE18=From Here To The Moon And Back
TTITLE19=Better Day
EXTD=
EXTT0=
EXTT1=
EXTT2=
EXTT3=
EXTT4=
EXTT5=
EXTT6=
EXTT7=
EXTT8=
EXTT9=
EXTT10=
EXTT11=
EXTT12=
EXTT13=
EXTT14=
EXTT15=
EXTT16=
EXTT17=
EXTT18=
EXTT19=
PLAYORDER=
